<svg version="1.1" id="Layer_1" xmlns="http://www.w3.org/2000/svg" xmlns:xlink="http://www.w3.org/1999/xlink" x="0px" y="0px"
	 width="100%" viewBox="0 0 743 342" enable-background="new 0 0 743 342" xml:space="preserve">
<path fill="#FFFFFF" opacity="1.000000" stroke="none" 
	d="
M700.000000,343.000000 
	C466.666656,343.000000 233.833328,343.000000 1.000000,343.000000 
	C1.000000,229.000000 1.000000,115.000000 1.000000,1.000000 
	C248.666672,1.000000 496.333344,1.000000 744.000000,1.000000 
	C744.000000,115.000000 744.000000,229.000000 744.000000,343.000000 
	C729.500000,343.000000 715.000000,343.000000 700.000000,343.000000 
M130.090546,209.735916 
	C132.916168,209.830032 135.756668,209.771210 138.564835,210.044556 
	C151.184433,211.272919 166.171906,201.342026 170.616714,187.563049 
	C172.311859,182.308075 172.743164,176.559769 177.888519,173.020615 
	C178.601730,172.530045 178.904617,171.316269 179.207520,170.376099 
	C181.396530,163.582260 183.730652,156.826355 185.632477,149.951553 
	C187.230133,144.176285 183.799454,138.638138 177.974792,137.406586 
	C176.832352,137.165024 175.349731,138.532379 174.024002,139.157669 
	C174.706879,140.251526 175.212341,142.109177 176.101349,142.315689 
	C182.025406,143.691757 183.278275,145.420135 181.196487,151.255341 
	C179.027176,157.335785 176.556641,163.316315 174.014618,169.253540 
	C172.377151,173.078094 168.452011,173.702713 166.898819,170.190491 
	C163.756195,163.084198 161.004105,155.753189 158.820999,148.300980 
	C157.982925,145.440140 158.609497,141.715485 163.735031,142.527878 
	C164.653168,142.673416 165.892731,140.791016 166.983887,139.844955 
	C165.654892,139.029190 164.235382,137.404572 163.013000,137.541367 
	C158.372818,138.060699 153.915009,142.024841 154.682297,146.613663 
	C156.356949,156.628967 157.996643,167.081329 164.227264,175.413605 
	C166.694870,178.713547 167.444702,181.091629 166.406158,184.664856 
	C161.666367,200.972565 144.696991,209.448135 128.278946,203.923187 
	C125.479515,202.981125 122.255157,203.123032 119.224586,203.100464 
	C116.573578,203.080688 113.919052,203.534012 110.231438,203.873627 
	C111.370407,202.103088 111.596687,201.402969 112.077682,201.058365 
	C116.186424,198.114594 115.690804,195.324158 113.156578,191.132172 
	C103.073700,174.453644 111.614082,153.444305 130.466537,148.030304 
	C132.476059,147.453232 135.200211,147.981155 137.153671,148.915085 
	C140.118668,150.332535 143.061050,150.788025 144.593323,147.920929 
	C145.593170,146.050079 145.578445,142.033173 144.324417,140.963715 
	C142.722351,139.597443 139.340591,139.758957 136.862106,140.142487 
	C134.554642,140.499527 132.513687,142.335648 130.203888,142.960983 
	C116.747009,146.604248 108.452660,155.288757 104.983658,168.620911 
	C102.411827,178.505051 104.595200,187.694992 109.907715,196.122269 
	C109.419762,196.743225 109.066803,197.106415 108.813286,197.529236 
	C107.379730,199.919983 105.970009,202.325043 104.552177,204.725204 
	C107.401512,206.059753 110.200981,207.523026 113.128075,208.656845 
	C114.110878,209.037552 115.426506,208.454407 116.576401,208.527115 
	C120.798546,208.794022 125.014969,209.151443 130.090546,209.735916 
M248.986862,188.458191 
	C248.986862,190.562866 248.986862,192.667526 248.986862,194.649445 
	C252.585709,194.649445 255.634445,194.649445 258.584381,194.649445 
	C258.584381,180.899307 258.584381,167.514603 258.584381,154.162033 
	C249.552719,153.295380 249.552780,153.295410 246.161606,160.808044 
	C243.083130,167.627975 240.004471,174.447861 236.538651,182.125610 
	C232.926712,174.137268 229.785156,167.198181 226.651245,160.255646 
	C223.362457,152.970047 222.397385,152.518677 214.520264,154.511246 
	C214.520264,167.961853 214.520264,181.372330 214.520264,194.813995 
	C217.774323,194.813995 220.712982,194.813995 224.277740,194.813995 
	C224.277740,188.904510 224.277740,183.170441 224.277740,177.436371 
	C224.523209,177.439026 224.768677,177.441681 225.014130,177.444321 
	C227.512497,183.331436 230.010864,189.218552 232.214111,194.410278 
	C239.096832,196.659500 241.996307,193.767960 243.598251,188.080261 
	C244.660034,184.310333 246.631012,180.796478 248.194977,177.167984 
	C248.458923,177.280563 248.722885,177.393127 248.986847,177.505692 
	C248.986847,180.832809 248.986847,184.159927 248.986862,188.458191 
M493.801666,188.564056 
	C499.072876,195.347946 504.170349,196.807693 512.034790,193.792252 
	C512.620178,193.567810 513.292297,193.096863 513.801819,193.225372 
	C516.824097,193.987671 519.810242,194.893036 523.198853,195.861938 
	C523.198853,180.878723 523.198853,167.145996 523.198853,153.403137 
	C520.107544,153.403137 517.338928,153.403137 514.106384,153.403137 
	C514.106384,157.687439 514.106384,161.741760 514.106384,165.726944 
	C511.148041,165.029434 508.637299,163.938736 506.122589,163.929428 
	C494.159515,163.885147 488.013153,175.605850 493.801666,188.564056 
M319.645264,194.184509 
	C320.379822,193.842239 321.201904,193.091156 321.834198,193.226547 
	C325.038696,193.912643 328.193909,194.828888 331.538513,195.709808 
	C331.538513,180.704559 331.538513,167.020508 331.538513,153.450912 
	C328.409607,153.450912 325.664062,153.450912 322.374695,153.450912 
	C322.374695,157.760880 322.374695,161.786102 322.374695,165.997711 
	C313.655212,162.517990 307.809143,163.633316 303.021484,169.359055 
	C299.057037,174.100281 298.523010,182.420059 301.820068,188.076035 
	C305.309692,194.062378 311.185822,196.286774 319.645264,194.184509 
M363.314667,153.493500 
	C356.956909,155.580261 353.855225,158.998077 353.679291,164.110733 
	C353.477020,169.989746 356.279236,173.743912 362.780090,176.309586 
	C365.397369,177.342545 368.224060,178.053772 370.541870,179.551483 
	C371.762360,180.340164 372.913757,182.713776 372.592438,183.994415 
	C372.271759,185.272369 369.856049,187.127808 368.737488,186.896744 
	C365.300598,186.186752 362.045044,184.598618 358.719025,183.351791 
	C358.828888,182.884216 358.938751,182.416626 359.048645,181.949051 
	C356.876282,183.099380 354.703888,184.249710 352.560547,185.384689 
	C355.329681,192.550354 361.871185,196.542221 369.127594,195.687820 
	C376.637085,194.803619 381.721924,190.586548 382.651489,184.471848 
	C383.456116,179.179001 380.091827,174.370087 373.234924,171.269501 
	C370.819733,170.177368 368.085571,169.684830 365.856201,168.328278 
	C364.571503,167.546539 364.005035,165.584534 363.115265,164.153793 
	C364.689148,163.194656 366.413544,161.271820 367.803680,161.488922 
	C370.250275,161.871033 372.492645,163.560867 375.447968,165.010971 
	C376.994598,164.113800 379.188599,162.841156 381.530701,161.482574 
	C377.128082,154.674072 371.440094,152.183945 363.314667,153.493500 
M420.995331,171.500793 
	C420.995331,179.259232 420.995331,187.017654 420.995331,194.784851 
	C424.308258,194.784851 427.065094,194.784851 430.202179,194.784851 
	C430.202179,189.626694 430.121338,184.676346 430.226135,179.729919 
	C430.320953,175.253479 433.591705,171.740524 437.546234,171.902863 
	C442.584595,172.109680 441.889709,176.054352 441.964233,179.267929 
	C442.082825,184.380630 441.995911,189.498077 441.995911,194.698242 
	C445.285034,194.698242 448.161865,194.698242 451.172638,194.698242 
	C451.172638,188.585297 451.206421,182.777023 451.162537,176.969345 
	C451.123840,171.844299 449.643463,167.345016 444.688019,164.965622 
	C439.767120,162.602814 435.328705,163.961502 431.342957,167.379013 
	C431.218445,167.485794 430.808258,167.259399 430.068481,167.069595 
	C430.068481,162.634796 430.068481,158.067383 430.068481,153.403473 
	C426.865906,153.403473 424.130432,153.403473 420.995422,153.403473 
	C420.995422,159.260666 420.995422,164.881119 420.995331,171.500793 
M612.070374,185.469360 
	C612.070374,178.408310 612.070374,171.347244 612.070374,164.379044 
	C608.686584,164.379044 606.049500,164.320435 603.417053,164.404861 
	C602.183167,164.444412 600.776855,165.248154 599.758911,164.870148 
	C593.621338,162.590897 587.060425,164.410355 582.916382,169.798126 
	C578.750854,175.213852 578.881531,184.279785 583.203979,189.749222 
	C587.366028,195.015701 593.999573,196.709503 600.132996,194.109055 
	C600.960815,193.758041 601.934814,193.235001 602.720398,193.392822 
	C605.717590,193.994949 608.665222,194.843140 612.070374,195.711349 
	C612.070374,191.737579 612.070374,189.098480 612.070374,185.469360 
M291.882294,192.382507 
	C291.761475,191.241974 292.050262,189.491135 291.439240,189.081024 
	C289.908356,188.053574 287.872162,186.892960 286.213776,187.111969 
	C281.688629,187.709579 277.449463,188.373535 274.136017,182.858429 
	C281.521240,182.858429 288.193451,182.858429 294.771667,182.858429 
	C296.105377,172.677109 291.853424,165.669296 283.748474,164.042328 
	C275.666595,162.419998 267.050812,167.561310 264.990906,175.235550 
	C262.674255,183.866394 266.898132,191.849213 275.445129,194.536819 
	C280.898346,196.251602 286.275055,195.905487 291.882294,192.382507 
M470.980499,187.237717 
	C469.265076,186.142883 467.549622,185.048050 465.834167,183.953217 
	C466.047241,183.516602 466.260315,183.080002 466.473358,182.643402 
	C473.224579,182.643402 479.975800,182.643402 486.668243,182.643402 
	C487.635681,172.665161 483.621246,165.988297 475.813538,164.111130 
	C468.605408,162.378128 460.119385,166.623077 457.238159,173.403000 
	C454.231232,180.478943 456.674652,188.542084 463.066010,192.634430 
	C470.164917,197.179825 479.615540,196.334015 484.704620,190.697845 
	C480.913300,186.560959 480.917755,186.590057 475.254272,187.454514 
	C474.132660,187.625702 472.962433,187.478317 470.980499,187.237717 
M534.360474,164.146362 
	C532.747314,164.146362 531.134216,164.146362 529.073914,164.146362 
	C529.073914,169.929306 529.058960,175.214401 529.084290,180.499298 
	C529.090637,181.827347 529.108337,183.173904 529.320679,184.479446 
	C531.001953,194.816345 540.256409,198.398804 548.508606,191.940414 
	C548.862854,191.663177 549.278625,191.464691 549.806519,191.144028 
	C550.032043,192.519684 550.226624,193.706375 550.404663,194.792023 
	C553.546082,194.792023 556.320862,194.792023 559.139893,194.792023 
	C559.139893,184.508347 559.139893,174.449875 559.139893,164.416351 
	C556.032898,164.416351 553.269409,164.416351 550.083740,164.416351 
	C550.083740,169.631683 550.151672,174.588058 550.063110,179.541626 
	C549.987061,183.794937 546.917908,187.072617 543.183289,187.143570 
	C537.950439,187.242966 538.626404,183.272598 538.492859,180.099396 
	C538.311218,175.780945 538.335144,171.445175 538.489441,167.124619 
	C538.578674,164.625977 537.522339,163.836807 534.360474,164.146362 
M406.580017,186.438400 
	C405.780823,186.640671 404.814056,187.234741 404.211609,186.977051 
	C401.675140,185.892120 397.986145,185.119629 397.105743,183.160294 
	C396.053925,180.819534 396.434662,176.475189 398.056244,174.681610 
	C399.627136,172.944153 404.155304,172.061615 406.328339,173.073029 
	C410.605225,175.063614 412.741913,172.309265 415.752686,171.001617 
	C411.496429,164.543808 405.007172,162.294037 397.983795,164.657669 
	C390.763367,167.087601 386.646393,173.065903 386.993530,180.616882 
	C387.317169,187.656509 391.976074,193.299835 398.804749,194.923828 
	C406.177399,196.677155 412.362366,194.217056 416.215424,187.214203 
	C412.959503,186.790329 410.118347,186.420456 406.580017,186.438400 
M126.644249,171.987213 
	C121.669640,172.373428 121.485916,172.785675 123.047401,180.937805 
	C126.457970,180.937805 129.999649,180.937805 134.116425,180.937805 
	C134.116425,184.926117 134.116425,188.307785 134.116425,191.700165 
	C137.290634,191.700165 139.861816,191.700165 143.014572,191.700165 
	C143.014572,188.009094 143.014572,184.619583 143.014572,181.034515 
	C146.972977,180.813416 150.357056,180.624405 153.639725,180.441055 
	C153.639725,177.373337 153.639725,174.820175 153.639725,171.862793 
	C149.982513,171.862793 146.724884,171.862793 142.890717,171.862793 
	C142.890717,167.913727 142.890717,164.358154 142.890717,160.671692 
	C139.600815,160.671692 136.908463,160.671692 134.094818,160.671692 
	C133.904083,164.637634 133.732941,168.196396 133.550629,171.987152 
	C131.200745,171.987152 129.383621,171.987152 126.644249,171.987213 
M627.368469,165.775726 
	C624.498169,165.036987 621.627808,164.298233 618.312439,163.444931 
	C618.312439,174.643341 618.312439,184.671097 618.312439,194.669159 
	C621.443481,194.669159 624.307373,194.669159 627.308594,194.669159 
	C627.906982,184.918213 624.229614,172.979813 639.814941,172.529663 
	C639.814941,169.439987 639.814941,166.822586 639.814941,162.524124 
	C635.176025,164.645508 631.336487,166.401337 627.507385,168.152405 
	C627.486145,167.865952 627.438660,167.224594 627.368469,165.775726 
M565.389465,164.532959 
	C565.389465,174.618164 565.389465,184.703354 565.389465,194.696930 
	C568.881470,194.696930 571.782349,194.696930 574.517090,194.696930 
	C574.517090,180.669479 574.517090,166.985031 574.517090,153.399445 
	C571.361206,153.399445 568.602173,153.399445 565.388000,153.399445 
	C565.388000,156.966522 565.388000,160.256821 565.389465,164.532959 
M341.542419,195.003815 
	C343.306427,195.003815 345.070404,195.003815 346.727875,195.003815 
	C346.727875,184.419128 346.727875,174.390976 346.727875,164.481125 
	C343.622681,164.481125 340.888855,164.481125 337.903870,164.481125 
	C337.903870,173.922516 337.823914,183.046692 338.021423,192.164841 
	C338.042328,193.129089 339.692841,194.058044 341.542419,195.003815 
M337.890869,155.670822 
	C337.890869,157.297485 337.890869,158.924164 337.890869,160.750183 
	C341.092743,160.750183 343.978485,160.750183 346.727783,160.750183 
	C346.727783,158.088852 346.727783,155.714737 346.727783,152.349503 
	C343.385925,153.256256 340.646790,153.999481 337.890869,155.670822 
z"/>
<path fill="#FF8A82" opacity="1.000000" stroke="none" 
	d="
M129.662048,209.605362 
	C125.014969,209.151443 120.798546,208.794022 116.576401,208.527115 
	C115.426506,208.454407 114.110878,209.037552 113.128075,208.656845 
	C110.200981,207.523026 107.401512,206.059753 104.552170,204.725220 
	C105.970009,202.325043 107.379730,199.919983 108.813286,197.529236 
	C109.066803,197.106415 109.419762,196.743225 109.907715,196.122269 
	C104.595200,187.694992 102.411827,178.505051 104.983658,168.620911 
	C108.452660,155.288757 116.747009,146.604248 130.203888,142.960983 
	C132.513687,142.335648 134.554642,140.499527 136.862106,140.142487 
	C139.340591,139.758957 142.722351,139.597443 144.324417,140.963715 
	C145.578445,142.033173 145.593170,146.050079 144.593323,147.920929 
	C143.061050,150.788025 140.118668,150.332535 137.153671,148.915085 
	C135.200211,147.981155 132.476059,147.453232 130.466537,148.030304 
	C111.614082,153.444305 103.073700,174.453644 113.156578,191.132172 
	C115.690804,195.324158 116.186424,198.114594 112.077682,201.058365 
	C111.596687,201.402969 111.370407,202.103088 110.231438,203.873627 
	C113.919052,203.534012 116.573578,203.080688 119.224586,203.100464 
	C122.255157,203.123032 125.479515,202.981125 128.278946,203.923187 
	C144.696991,209.448135 161.666367,200.972565 166.406158,184.664856 
	C167.444702,181.091629 166.694870,178.713547 164.227264,175.413605 
	C157.996643,167.081329 156.356949,156.628967 154.682297,146.613663 
	C153.915009,142.024841 158.372818,138.060699 163.013000,137.541367 
	C164.235382,137.404572 165.654892,139.029190 166.983887,139.844955 
	C165.892731,140.791016 164.653168,142.673416 163.735031,142.527878 
	C158.609497,141.715485 157.982925,145.440140 158.820999,148.300980 
	C161.004105,155.753189 163.756195,163.084198 166.898819,170.190491 
	C168.452011,173.702713 172.377151,173.078094 174.014618,169.253540 
	C176.556641,163.316315 179.027176,157.335785 181.196487,151.255341 
	C183.278275,145.420135 182.025406,143.691757 176.101349,142.315689 
	C175.212341,142.109177 174.706879,140.251526 174.024002,139.157669 
	C175.349731,138.532379 176.832352,137.165024 177.974792,137.406586 
	C183.799454,138.638138 187.230133,144.176285 185.632477,149.951553 
	C183.730652,156.826355 181.396530,163.582260 179.207520,170.376099 
	C178.904617,171.316269 178.601730,172.530045 177.888519,173.020615 
	C172.743164,176.559769 172.311859,182.308075 170.616714,187.563049 
	C166.171906,201.342026 151.184433,211.272919 138.564835,210.044556 
	C135.756668,209.771210 132.916168,209.830032 129.662048,209.605362 
z"/>
<path fill="#171717" opacity="1.000000" stroke="none" 
	d="
M248.986847,187.972626 
	C248.986847,184.159927 248.986847,180.832809 248.986847,177.505692 
	C248.722885,177.393127 248.458923,177.280563 248.194977,177.167984 
	C246.631012,180.796478 244.660034,184.310333 243.598251,188.080261 
	C241.996307,193.767960 239.096832,196.659500 232.214111,194.410278 
	C230.010864,189.218552 227.512497,183.331436 225.014130,177.444321 
	C224.768677,177.441681 224.523209,177.439026 224.277740,177.436371 
	C224.277740,183.170441 224.277740,188.904510 224.277740,194.813995 
	C220.712982,194.813995 217.774323,194.813995 214.520264,194.813995 
	C214.520264,181.372330 214.520264,167.961853 214.520264,154.511246 
	C222.397385,152.518677 223.362457,152.970047 226.651245,160.255646 
	C229.785156,167.198181 232.926712,174.137268 236.538651,182.125610 
	C240.004471,174.447861 243.083130,167.627975 246.161606,160.808044 
	C249.552780,153.295410 249.552719,153.295380 258.584381,154.162033 
	C258.584381,167.514603 258.584381,180.899307 258.584381,194.649445 
	C255.634445,194.649445 252.585709,194.649445 248.986862,194.649445 
	C248.986862,192.667526 248.986862,190.562866 248.986847,187.972626 
z"/>
<path fill="#171717" opacity="1.000000" stroke="none" 
	d="
M493.584167,188.259064 
	C488.013153,175.605850 494.159515,163.885147 506.122589,163.929428 
	C508.637299,163.938736 511.148041,165.029434 514.106384,165.726944 
	C514.106384,161.741760 514.106384,157.687439 514.106384,153.403137 
	C517.338928,153.403137 520.107544,153.403137 523.198853,153.403137 
	C523.198853,167.145996 523.198853,180.878723 523.198853,195.861938 
	C519.810242,194.893036 516.824097,193.987671 513.801819,193.225372 
	C513.292297,193.096863 512.620178,193.567810 512.034790,193.792252 
	C504.170349,196.807693 499.072876,195.347946 493.584167,188.259064 
M505.975677,172.212234 
	C501.020630,174.342316 499.310883,177.339996 500.547028,181.747589 
	C501.728119,185.958969 504.637238,187.699509 508.809479,187.068375 
	C513.299683,186.389145 514.627869,183.043457 514.535278,179.068634 
	C514.430298,174.565796 511.888611,172.427902 505.975677,172.212234 
z"/>
<path fill="#171717" opacity="1.000000" stroke="none" 
	d="
M319.304443,194.375137 
	C311.185822,196.286774 305.309692,194.062378 301.820068,188.076035 
	C298.523010,182.420059 299.057037,174.100281 303.021484,169.359055 
	C307.809143,163.633316 313.655212,162.517990 322.374695,165.997711 
	C322.374695,161.786102 322.374695,157.760880 322.374695,153.450912 
	C325.664062,153.450912 328.409607,153.450912 331.538513,153.450912 
	C331.538513,167.020508 331.538513,180.704559 331.538513,195.709808 
	C328.193909,194.828888 325.038696,193.912643 321.834198,193.226547 
	C321.201904,193.091156 320.379822,193.842239 319.304443,194.375137 
M313.121826,186.814667 
	C314.103333,186.931549 315.090912,187.185303 316.065277,187.141800 
	C320.471039,186.945160 323.148926,183.809555 322.940094,179.198364 
	C322.743652,174.860199 319.700928,171.833420 315.737396,172.033463 
	C311.236023,172.260620 308.143799,175.344147 308.843201,179.849457 
	C309.204041,182.173691 311.161224,184.250076 313.121826,186.814667 
z"/>
<path fill="#181818" opacity="1.000000" stroke="none" 
	d="
M363.714783,153.380905 
	C371.440094,152.183945 377.128082,154.674072 381.530701,161.482574 
	C379.188599,162.841156 376.994598,164.113800 375.447968,165.010971 
	C372.492645,163.560867 370.250275,161.871033 367.803680,161.488922 
	C366.413544,161.271820 364.689148,163.194656 363.115265,164.153778 
	C364.005035,165.584534 364.571503,167.546539 365.856201,168.328278 
	C368.085571,169.684830 370.819733,170.177368 373.234924,171.269501 
	C380.091827,174.370087 383.456116,179.179001 382.651489,184.471848 
	C381.721924,190.586548 376.637085,194.803619 369.127594,195.687820 
	C361.871185,196.542221 355.329681,192.550354 352.560547,185.384689 
	C354.703888,184.249710 356.876282,183.099380 359.048645,181.949051 
	C358.938751,182.416626 358.828888,182.884216 358.719025,183.351791 
	C362.045044,184.598618 365.300598,186.186752 368.737488,186.896744 
	C369.856049,187.127808 372.271759,185.272369 372.592438,183.994415 
	C372.913757,182.713776 371.762360,180.340164 370.541870,179.551483 
	C368.224060,178.053772 365.397369,177.342545 362.780090,176.309586 
	C356.279236,173.743912 353.477020,169.989746 353.679291,164.110733 
	C353.855225,158.998077 356.956909,155.580261 363.714783,153.380905 
z"/>
<path fill="#131313" opacity="1.000000" stroke="none" 
	d="
M420.995361,171.001190 
	C420.995422,164.881119 420.995422,159.260666 420.995422,153.403473 
	C424.130432,153.403473 426.865906,153.403473 430.068481,153.403473 
	C430.068481,158.067383 430.068481,162.634796 430.068481,167.069595 
	C430.808258,167.259399 431.218445,167.485794 431.342957,167.379013 
	C435.328705,163.961502 439.767120,162.602814 444.688019,164.965622 
	C449.643463,167.345016 451.123840,171.844299 451.162537,176.969345 
	C451.206421,182.777023 451.172638,188.585297 451.172638,194.698242 
	C448.161865,194.698242 445.285034,194.698242 441.995911,194.698242 
	C441.995911,189.498077 442.082825,184.380630 441.964233,179.267929 
	C441.889709,176.054352 442.584595,172.109680 437.546234,171.902863 
	C433.591705,171.740524 430.320953,175.253479 430.226135,179.729919 
	C430.121338,184.676346 430.202179,189.626694 430.202179,194.784851 
	C427.065094,194.784851 424.308258,194.784851 420.995331,194.784851 
	C420.995331,187.017654 420.995331,179.259232 420.995361,171.001190 
z"/>
<path fill="#151515" opacity="1.000000" stroke="none" 
	d="
M612.070374,185.964371 
	C612.070374,189.098480 612.070374,191.737579 612.070374,195.711349 
	C608.665222,194.843140 605.717590,193.994949 602.720398,193.392822 
	C601.934814,193.235001 600.960815,193.758041 600.132996,194.109055 
	C593.999573,196.709503 587.366028,195.015701 583.203979,189.749222 
	C578.881531,184.279785 578.750854,175.213852 582.916382,169.798126 
	C587.060425,164.410355 593.621338,162.590897 599.758911,164.870148 
	C600.776855,165.248154 602.183167,164.444412 603.417053,164.404861 
	C606.049500,164.320435 608.686584,164.379044 612.070374,164.379044 
	C612.070374,171.347244 612.070374,178.408310 612.070374,185.964371 
M588.952759,180.334488 
	C590.344604,185.741501 592.963745,187.908813 597.457825,187.087753 
	C601.872742,186.281158 603.271973,183.145248 603.086670,179.054153 
	C602.906067,175.064545 600.964478,172.437607 596.848999,172.040939 
	C592.330933,171.605499 589.714600,174.192978 588.952759,180.334488 
z"/>
<path fill="#191919" opacity="1.000000" stroke="none" 
	d="
M291.582153,192.603180 
	C286.275055,195.905487 280.898346,196.251602 275.445129,194.536819 
	C266.898132,191.849213 262.674255,183.866394 264.990906,175.235550 
	C267.050812,167.561310 275.666595,162.419998 283.748474,164.042328 
	C291.853424,165.669296 296.105377,172.677109 294.771667,182.858429 
	C288.193451,182.858429 281.521240,182.858429 274.136017,182.858429 
	C277.449463,188.373535 281.688629,187.709579 286.213776,187.111969 
	C287.872162,186.892960 289.908356,188.053574 291.439240,189.081024 
	C292.050262,189.491135 291.761475,191.241974 291.582153,192.603180 
M285.117767,173.686584 
	C279.974976,170.698639 277.269958,171.271759 274.853119,176.158554 
	C278.097656,176.158554 281.186951,176.249603 284.260803,176.072845 
	C284.800629,176.041809 285.275879,174.888214 285.117767,173.686584 
z"/>
<path fill="#1A1A1A" opacity="1.000000" stroke="none" 
	d="
M471.397552,187.357773 
	C472.962433,187.478317 474.132660,187.625702 475.254272,187.454514 
	C480.917755,186.590057 480.913300,186.560959 484.704620,190.697845 
	C479.615540,196.334015 470.164917,197.179825 463.066010,192.634430 
	C456.674652,188.542084 454.231232,180.478943 457.238159,173.403000 
	C460.119385,166.623077 468.605408,162.378128 475.813538,164.111130 
	C483.621246,165.988297 487.635681,172.665161 486.668243,182.643402 
	C479.975800,182.643402 473.224579,182.643402 466.473358,182.643402 
	C466.260315,183.080002 466.047241,183.516602 465.834167,183.953217 
	C467.549622,185.048050 469.265076,186.142883 471.397552,187.357773 
M466.758972,174.444611 
	C466.918091,175.005035 467.064056,176.049713 467.238190,176.054459 
	C470.758270,176.149872 474.281586,176.125916 478.161682,176.125916 
	C474.688629,171.083771 472.383575,170.704346 466.758972,174.444611 
z"/>
<path fill="#181818" opacity="1.000000" stroke="none" 
	d="
M534.802612,164.146469 
	C537.522339,163.836807 538.578674,164.625977 538.489441,167.124619 
	C538.335144,171.445175 538.311218,175.780945 538.492859,180.099396 
	C538.626404,183.272598 537.950439,187.242966 543.183289,187.143570 
	C546.917908,187.072617 549.987061,183.794937 550.063110,179.541626 
	C550.151672,174.588058 550.083740,169.631683 550.083740,164.416351 
	C553.269409,164.416351 556.032898,164.416351 559.139893,164.416351 
	C559.139893,174.449875 559.139893,184.508347 559.139893,194.792023 
	C556.320862,194.792023 553.546082,194.792023 550.404663,194.792023 
	C550.226624,193.706375 550.032043,192.519684 549.806519,191.144028 
	C549.278625,191.464691 548.862854,191.663177 548.508606,191.940414 
	C540.256409,198.398804 531.001953,194.816345 529.320679,184.479446 
	C529.108337,183.173904 529.090637,181.827347 529.084290,180.499298 
	C529.058960,175.214401 529.073914,169.929306 529.073914,164.146362 
	C531.134216,164.146362 532.747314,164.146362 534.802612,164.146469 
z"/>
<path fill="#171717" opacity="1.000000" stroke="none" 
	d="
M406.928589,186.244476 
	C410.118347,186.420456 412.959503,186.790329 416.215424,187.214203 
	C412.362366,194.217056 406.177399,196.677155 398.804749,194.923828 
	C391.976074,193.299835 387.317169,187.656509 386.993530,180.616882 
	C386.646393,173.065903 390.763367,167.087601 397.983795,164.657669 
	C405.007172,162.294037 411.496429,164.543808 415.752686,171.001617 
	C412.741913,172.309265 410.605225,175.063614 406.328339,173.073029 
	C404.155304,172.061615 399.627136,172.944153 398.056244,174.681610 
	C396.434662,176.475189 396.053925,180.819534 397.105743,183.160294 
	C397.986145,185.119629 401.675140,185.892120 404.211609,186.977051 
	C404.814056,187.234741 405.780823,186.640671 406.928589,186.244476 
z"/>
<path fill="#FF8881" opacity="1.000000" stroke="none" 
	d="
M127.105362,171.987183 
	C129.383621,171.987152 131.200745,171.987152 133.550629,171.987152 
	C133.732941,168.196396 133.904083,164.637634 134.094818,160.671692 
	C136.908463,160.671692 139.600815,160.671692 142.890717,160.671692 
	C142.890717,164.358154 142.890717,167.913727 142.890717,171.862793 
	C146.724884,171.862793 149.982513,171.862793 153.639725,171.862793 
	C153.639725,174.820175 153.639725,177.373337 153.639725,180.441055 
	C150.357056,180.624405 146.972977,180.813416 143.014572,181.034515 
	C143.014572,184.619583 143.014572,188.009094 143.014572,191.700165 
	C139.861816,191.700165 137.290634,191.700165 134.116425,191.700165 
	C134.116425,188.307785 134.116425,184.926117 134.116425,180.937805 
	C129.999649,180.937805 126.457970,180.937805 123.047401,180.937805 
	C121.485916,172.785675 121.669640,172.373428 127.105362,171.987183 
z"/>
<path fill="#171717" opacity="1.000000" stroke="none" 
	d="
M627.379822,166.179474 
	C627.438660,167.224594 627.486145,167.865952 627.507385,168.152405 
	C631.336487,166.401337 635.176025,164.645508 639.814941,162.524124 
	C639.814941,166.822586 639.814941,169.439987 639.814941,172.529663 
	C624.229614,172.979813 627.906982,184.918213 627.308594,194.669159 
	C624.307373,194.669159 621.443481,194.669159 618.312439,194.669159 
	C618.312439,184.671097 618.312439,174.643341 618.312439,163.444931 
	C621.627808,164.298233 624.498169,165.036987 627.379822,166.179474 
z"/>
<path fill="#232323" opacity="1.000000" stroke="none" 
	d="
M565.388733,164.040039 
	C565.388000,160.256821 565.388000,156.966522 565.388000,153.399445 
	C568.602173,153.399445 571.361206,153.399445 574.517090,153.399445 
	C574.517090,166.985031 574.517090,180.669479 574.517090,194.696930 
	C571.782349,194.696930 568.881470,194.696930 565.389465,194.696930 
	C565.389465,184.703354 565.389465,174.618164 565.388733,164.040039 
z"/>
<path fill="#131313" opacity="1.000000" stroke="none" 
	d="
M341.064880,195.003601 
	C339.692841,194.058044 338.042328,193.129089 338.021423,192.164841 
	C337.823914,183.046692 337.903870,173.922516 337.903870,164.481125 
	C340.888855,164.481125 343.622681,164.481125 346.727875,164.481125 
	C346.727875,174.390976 346.727875,184.419128 346.727875,195.003815 
	C345.070404,195.003815 343.306427,195.003815 341.064880,195.003601 
z"/>
<path fill="#181818" opacity="1.000000" stroke="none" 
	d="
M337.899261,155.206757 
	C340.646790,153.999481 343.385925,153.256256 346.727783,152.349503 
	C346.727783,155.714737 346.727783,158.088852 346.727783,160.750183 
	C343.978485,160.750183 341.092743,160.750183 337.890869,160.750183 
	C337.890869,158.924164 337.890869,157.297485 337.899261,155.206757 
z"/>
<path fill="#F7F7F7" opacity="1.000000" stroke="none" 
	d="
M506.363525,172.152100 
	C511.888611,172.427902 514.430298,174.565796 514.535278,179.068634 
	C514.627869,183.043457 513.299683,186.389145 508.809479,187.068375 
	C504.637238,187.699509 501.728119,185.958969 500.547028,181.747589 
	C499.310883,177.339996 501.020630,174.342316 506.363525,172.152100 
z"/>
<path fill="#F7F7F7" opacity="1.000000" stroke="none" 
	d="
M312.759460,186.626556 
	C311.161224,184.250076 309.204041,182.173691 308.843201,179.849457 
	C308.143799,175.344147 311.236023,172.260620 315.737396,172.033463 
	C319.700928,171.833420 322.743652,174.860199 322.940094,179.198364 
	C323.148926,183.809555 320.471039,186.945160 316.065277,187.141800 
	C315.090912,187.185303 314.103333,186.931549 312.759460,186.626556 
z"/>
<path fill="#F8F8F8" opacity="1.000000" stroke="none" 
	d="
M588.936890,179.929810 
	C589.714600,174.192978 592.330933,171.605499 596.848999,172.040939 
	C600.964478,172.437607 602.906067,175.064545 603.086670,179.054153 
	C603.271973,183.145248 601.872742,186.281158 597.457825,187.087753 
	C592.963745,187.908813 590.344604,185.741501 588.936890,179.929810 
z"/>
<path fill="#F7F7F7" opacity="1.000000" stroke="none" 
	d="
M285.449371,173.969818 
	C285.275879,174.888214 284.800629,176.041809 284.260803,176.072845 
	C281.186951,176.249603 278.097656,176.158554 274.853119,176.158554 
	C277.269958,171.271759 279.974976,170.698639 285.449371,173.969818 
z"/>
<path fill="#F7F7F7" opacity="1.000000" stroke="none" 
	d="
M467.040985,174.146820 
	C472.383575,170.704346 474.688629,171.083771 478.161682,176.125916 
	C474.281586,176.125916 470.758270,176.149872 467.238190,176.054459 
	C467.064056,176.049713 466.918091,175.005035 467.040985,174.146820 
z"/>
</svg>